<svg width="19" height="20" viewBox="0 0 19 20" fill="none" xmlns="http://www.w3.org/2000/svg">
<path d="M11 0V8H19C19 5.87827 18.1571 3.84344 16.6569 2.34315C15.1566 0.842855 13.1217 0 11 0V0ZM17.32 13.89C18.37 12.54 19 10.84 19 9H4.44L3.5 7H0V9H2.22C2.22 9 4.11 13.07 4.34 13.42C3.24 14 2.5 15.17 2.5 16.5C2.5 17.4283 2.86875 18.3185 3.52513 18.9749C4.1815 19.6313 5.07174 20 6 20C7.76 20 9.22 18.7 9.46 17H11.54C11.78 18.7 13.24 20 15 20C15.9283 20 16.8185 19.6313 17.4749 18.9749C18.1313 18.3185 18.5 17.4283 18.5 16.5C18.5 15.46 18.04 14.53 17.32 13.89ZM6 18C5.60218 18 5.22064 17.842 4.93934 17.5607C4.65804 17.2794 4.5 16.8978 4.5 16.5C4.5 16.1022 4.65804 15.7206 4.93934 15.4393C5.22064 15.158 5.60218 15 6 15C6.39782 15 6.77936 15.158 7.06066 15.4393C7.34196 15.7206 7.5 16.1022 7.5 16.5C7.5 16.8978 7.34196 17.2794 7.06066 17.5607C6.77936 17.842 6.39782 18 6 18ZM15 18C14.6022 18 14.2206 17.842 13.9393 17.5607C13.658 17.2794 13.5 16.8978 13.5 16.5C13.5 16.1022 13.658 15.7206 13.9393 15.4393C14.2206 15.158 14.6022 15 15 15C15.3978 15 15.7794 15.158 16.0607 15.4393C16.342 15.7206 16.5 16.1022 16.5 16.5C16.5 16.8978 16.342 17.2794 16.0607 17.5607C15.7794 17.842 15.3978 18 15 18Z" fill="#9696A0"/>
</svg>
