<svg width="11" height="22" viewBox="0 0 11 22" fill="none" xmlns="http://www.w3.org/2000/svg">
<path d="M0.83 17.12C-5.96046e-08 15.96 0 14.62 0 13.29C1.67 14.29 3.33 15.29 4.17 16.46L4.5 17.02V14.74C3 13.84 1.58 12.92 0.83 11.87C-5.96046e-08 10.71 0 9.37 0 8.04C1.67 9.04 3.33 10.04 4.17 11.21L4.5 11.79V9.49C3 8.59 1.58 7.67 0.83 6.62C-5.96046e-08 5.46 0 4.12 0 2.79C1.67 3.79 3.33 4.79 4.17 5.96C4.27 6.1 4.36 6.25 4.44 6.41C4.27 5.79 4.16 5.21 4.15 4.61C4.14 3.1 4.8 1.55 5.46 3.8147e-08C6.15 1.48 6.84 2.97 6.85 4.48C6.86 5.11 6.75 5.75 6.57 6.38C6.65 6.24 6.73 6.1 6.83 5.96C7.67 4.79 9.33 3.79 11 2.79C11 4.12 11 5.46 10.17 6.62C9.42 7.67 8 8.59 6.5 9.49V11.79L6.83 11.21C7.67 10.04 9.33 9.04 11 8.04C11 9.37 11 10.71 10.17 11.87C9.42 12.92 8 13.84 6.5 14.74V17.02L6.83 16.46C7.67 15.29 9.33 14.29 11 13.29C11 14.62 11 15.96 10.17 17.12C9.42 18.17 8 19.09 6.5 19.99V21.79H4.5V19.99C3 19.09 1.58 18.17 0.83 17.12Z" fill="#9696A0"/>
</svg>
