<svg width="19" height="19" viewBox="0 0 19 19" fill="none" xmlns="http://www.w3.org/2000/svg">
<path d="M1.7025 11.6025L0.9825 10.8925C0.2125 10.1125 0.2125 8.8525 0.9825 8.0725C1.7825 7.2825 3.0425 7.2825 3.8225 8.0725L6.4025 10.6425L10.6425 6.4025L8.0725 3.8225C7.2825 3.0425 7.2825 1.7825 8.0725 0.9825C8.8525 0.2125 10.1125 0.2125 10.8925 0.9825L11.6025 1.7025L17.2625 7.3625L17.9825 8.0725C18.7525 8.8525 18.7525 10.1125 17.9825 10.8925C17.1825 11.6825 15.9225 11.6825 15.1425 10.8925L12.5625 8.3225L8.3225 12.5625L10.8925 15.1425C11.6825 15.9225 11.6825 17.1825 10.8925 17.9825C10.1125 18.7525 8.8525 18.7525 8.0725 17.9825L7.3625 17.2625L1.7025 11.6025ZM0.6425 16.9025L1.7025 15.8425L0.2925 14.4325C-0.0975001 14.0425 -0.0975001 13.4125 0.2925 13.0225C0.6825 12.6325 1.3125 12.6325 1.7025 13.0225L5.9425 17.2625C6.3325 17.6525 6.3325 18.2825 5.9425 18.6725C5.5525 19.0625 4.9225 19.0625 4.5325 18.6725L3.1225 17.2625L2.0625 18.3225L0.6425 16.9025ZM16.9025 0.6425L18.3225 2.0625L17.2625 3.1225L18.6725 4.5325C19.0625 4.9225 19.0625 5.5525 18.6725 5.9425C18.2825 6.3425 17.6525 6.3425 17.2625 5.9425L13.0225 1.7025C12.6325 1.3125 12.6325 0.6825 13.0225 0.2925C13.4125 -0.0975001 14.0425 -0.0975001 14.4325 0.2925L15.8425 1.7025L16.9025 0.6425Z" fill="#9696A0"/>
</svg>
