<svg width="20" height="20" viewBox="0 0 20 20" fill="none" xmlns="http://www.w3.org/2000/svg">
<path d="M18.76 14.34H18.75C19.5 14.77 20 15.58 20 16.5C20 17.163 19.7366 17.7989 19.2678 18.2678C18.7989 18.7366 18.163 19 17.5 19H2.5C1.83696 19 1.20107 18.7366 0.732233 18.2678C0.263392 17.7989 0 17.163 0 16.5C0 15.58 0.5 14.77 1.25 14.34H1.24L9 9.86C9 9.86 9 9 10 8C11 8 12 7.1 12 6C12 5.46957 11.7893 4.96086 11.4142 4.58579C11.0391 4.21071 10.5304 4 10 4C9.46957 4 8.96086 4.21071 8.58579 4.58579C8.21071 4.96086 8 5.46957 8 6H6C6 4.93913 6.42143 3.92172 7.17157 3.17157C7.92172 2.42143 8.93913 2 10 2C11.0609 2 12.0783 2.42143 12.8284 3.17157C13.5786 3.92172 14 4.93913 14 6C14 7.86 12.73 9.42 11 9.87L18.76 14.34ZM2.5 17H17.5C17.67 17 17.84 16.91 17.93 16.75C18.07 16.5 18 16.21 17.75 16.07L10 11.59L2.25 16.07C2 16.21 1.93 16.5 2.07 16.75C2.16 16.91 2.33 17 2.5 17Z" fill="#2979FF"/>
</svg>
