<svg width="20" height="20" viewBox="0 0 20 20" fill="none" xmlns="http://www.w3.org/2000/svg">
<path d="M10 7.22C10.5304 7.22 11.0391 7.43071 11.4142 7.80579C11.7893 8.18086 12 8.68957 12 9.22C12 9.75043 11.7893 10.2591 11.4142 10.6342C11.0391 11.0093 10.5304 11.22 10 11.22C9.46957 11.22 8.96086 11.0093 8.58579 10.6342C8.21071 10.2591 8 9.75043 8 9.22C8 8.68957 8.21071 8.18086 8.58579 7.80579C8.96086 7.43071 9.46957 7.22 10 7.22V7.22ZM10 19.22C8.05 19.22 6.22 18.66 4.69 17.69L8 12.69C8.6 13.03 9.28 13.22 10 13.22C10.72 13.22 11.4 13.03 12 12.69L15.31 17.69C13.78 18.66 11.95 19.22 10 19.22ZM0 9.22C0 5.08 2.5 1.52 6.11 -2.86102e-08L8.34 5.58C6.96 6.22 6 7.6 6 9.22H0ZM14 9.22C14 7.6 13.04 6.22 11.66 5.58L13.89 -2.86102e-08C17.5 1.52 20 5.08 20 9.22H14Z" fill="#9696A0"/>
</svg>
