<svg width="20" height="19" viewBox="0 0 20 19" fill="none" xmlns="http://www.w3.org/2000/svg">
<path d="M5.36 10.52L1.17 6.34C-0.39 4.77 -0.39 2.24 1.17 0.68L8.19 7.68L5.36 10.52ZM10.67 10.18L17.55 17.06L16.14 18.47L9.26 11.59L2.38 18.47L0.97 17.06L10.62 7.4L10.42 7.18C9.64 6.41 9.64 5.15 10.42 4.37L14.76 -6.67572e-08L15.69 0.92L12.45 4.18L13.41 5.12L16.65 1.87L17.57 2.79L14.32 6.03L15.26 6.99L18.52 3.74L19.44 4.68L15.07 9.02C14.29 9.8 13.03 9.8 12.26 9.02L12.04 8.82L10.67 10.18Z" fill="#9696A0"/>
</svg>
